:SAMPLES-PER-SECOND 30
:FULLY-SPECIFIED
:DEGREES
240
root  -6.03484 40.1402 11.248 -179.803 -37.3481 178.049
RightUpLeg  -4.52201 7.61444 -17.7116
RightLeg  36.1358 -5.41601 -4.48865
RightFoot  19.2697 -1.8865 7.3866
RightToes  -1.33073e-015 0 -3.6325e-017
Spine  0.901039 0.304991 5.99969
Spine1  12.2592 -1.3219 3.5176
HEad  9.40484 -21.529 6.79653
LeftShoulder1  7.32989 -15.7269 -32.085
LeftArm  53.0911 -8.5232 -55.7926
LeftForeArm  -39.1116 -32.2751 -8.88275
LeftHand  -0.246645 0.021 5.37786
RightShoulder  7.05841 15.2434 31.6792
RightArm  38.2748 16.221 56.5739
RightForeArm  -16.9536 22.5396 6.16099
RightHand  -0.24729 -0.0210522 -5.37781
LeftUpLeg  -5.04538 5.37127 -0.605045
LeftLeg  10.2046 -12.5512 -5.16832
LeftFoot  -1.8292 -0.119728 1.57199
LeftToes  5.09284e-011 3.02203e-011 3.83118e-011
241
root  -5.92468 40.151 11.2421 -179.712 -33.2805 178.241
RightUpLeg  -4.51637 5.97101 -18.1341
RightLeg  33.6884 -6.10074 -4.6051
RightFoot  15.9743 -2.16191 9.33965
RightToes  -1.33073e-015 0 -3.6325e-017
Spine  1.60447 0.232753 3.95727
Spine1  12.4304 -1.62677 4.40797
HEad  9.59022 -20.7878 6.20758
LeftShoulder1  7.27056 -15.6029 -32.0231
LeftArm  51.6188 -9.04442 -55.447
LeftForeArm  -35.8033 -32.9445 -8.96444
LeftHand  -0.246645 0.021 5.37786
RightShoulder  7.08061 15.1827 31.9228
RightArm  36.9505 16.0295 55.6134
RightForeArm  -17.5021 23.6453 5.93645
RightHand  -0.24729 -0.0210522 -5.37781
LeftUpLeg  -5.00203 5.79237 -0.0569398
LeftLeg  9.95725 -9.19468 -4.7916
LeftFoot  -2.26626 -0.0831272 1.22029
LeftToes  5.09284e-011 3.02203e-011 3.83118e-011
242
root  -5.78903 40.1633 11.2209 -179.466 -29.3869 178.413
RightUpLeg  -4.45103 4.26499 -18.3871
RightLeg  30.8059 -6.46124 -4.3781
RightFoot  13.1532 -2.37607 11.3304
RightToes  -1.33073e-015 0 -3.6325e-017
Spine  1.9098 0.220419 2.03065
Spine1  12.7433 -1.86284 5.13475
HEad  9.88299 -20.0869 5.52453
LeftShoulder1  7.22628 -15.4688 -32.0604
LeftArm  49.3168 -9.38863 -54.8157
LeftForeArm  -31.8059 -33.6768 -9.03315
LeftHand  -0.246645 0.021 5.37786
RightShoulder  7.1678 15.1848 32.3874
RightArm  34.6158 15.9718 54.4611
RightForeArm  -15.7985 24.6999 6.04736
RightHand  -0.24729 -0.0210522 -5.37781
LeftUpLeg  -5.06172 6.1735 0.512189
LeftLeg  9.71786 -5.93645 -4.45902
LeftFoot  -2.60203 -0.0459398 0.806658
LeftToes  5.09284e-011 3.02203e-011 3.83118e-011
243
root  -5.62416 40.1798 11.1822 -179.198 -25.8181 178.717
RightUpLeg  -4.20989 2.39054 -18.3044
RightLeg  27.5446 -6.51521 -3.89967
RightFoot  10.8777 -2.48963 13.01
RightToes  -1.33073e-015 0 -3.6325e-017
Spine  1.99952 0.194968 0.419976
Spine1  13.0663 -2.07519 5.7147
HEad  10.3602 -19.3813 4.86838
LeftShoulder1  7.20577 -15.3567 -32.1795
LeftArm  46.4884 -9.43353 -54.0019
LeftForeArm  -28.5372 -34.8466 -9.2506
LeftHand  -0.246645 0.021 5.37786
RightShoulder  7.28761 15.2221 32.9513
RightArm  32.0651 15.8521 53.2624
RightForeArm  -14.3942 25.8499 6.2587
RightHand  -0.24729 -0.0210522 -5.37781
LeftUpLeg  -5.20249 6.63265 1.23352
LeftLeg  9.56998 -3.09237 -4.16735
LeftFoot  -2.87897 -0.00216293 0.263689
LeftToes  5.09284e-011 3.02203e-011 3.83118e-011
244
root  -5.43183 40.1996 11.1335 -178.919 -22.6406 179.082
RightUpLeg  -3.7299 0.311181 -17.9623
RightLeg  24.0077 -6.26237 -3.25871
RightFoot  8.961 -2.54094 14.4675
RightToes  -1.33073e-015 0 -3.6325e-017
Spine  1.98753 0.155566 -0.810458
Spine1  13.4015 -2.22515 6.06186
HEad  10.7549 -18.7535 4.41122
LeftShoulder1  7.15227 -15.2297 -32.1539
LeftArm  43.4782 -9.26838 -53.237
LeftForeArm  -24.7496 -36.1505 -9.48472
LeftHand  -0.246645 0.021 5.37786
RightShoulder  7.38929 15.2545 33.425
RightArm  29.0476 15.5083 52.0685
RightForeArm  -13.2735 27.1888 6.5251
RightHand  -0.24729 -0.0210522 -5.37781
LeftUpLeg  -5.35547 7.13682 2.03866
LeftLeg  9.46092 -0.69065 -3.90688
LeftFoot  -3.08318 0.0445065 -0.358738
LeftToes  5.09284e-011 3.02203e-011 3.83118e-011
245
root  -5.20777 40.2173 11.086 -178.565 -19.7923 179.351
RightUpLeg  -3.10581 -1.67586 -17.5275
RightLeg  20.3259 -5.74991 -2.55038
RightFoot  7.28057 -2.54773 15.7554
RightToes  -1.33073e-015 0 -3.6325e-017
Spine  1.85662 0.153639 -1.84304
Spine1  13.804 -2.27165 6.21607
HEad  10.8702 -18.2612 4.15174
LeftShoulder1  7.04333 -15.0631 -31.9107
LeftArm  40.6367 -9.08115 -52.4864
LeftForeArm  -18.3266 -37.25 -9.52736
LeftHand  -0.246645 0.021 5.37786
RightShoulder  7.415 15.2235 33.627
RightArm  25.6973 15.0927 51.0246
RightForeArm  -11.407 28.6628 6.79597
RightHand  -0.24729 -0.0210522 -5.37781
LeftUpLeg  -5.51247 7.60019 2.77657
LeftLeg  9.31909 1.45749 -3.67637
LeftFoot  -3.16661 0.0881741 -0.966563
LeftToes  5.09284e-011 3.02203e-011 3.83118e-011
246
root  -4.94389 40.225 11.0407 -178.15 -17.192 179.464
RightUpLeg  -2.39251 -3.39871 -17.0631
RightLeg  16.5765 -4.92342 -1.91816
RightFoot  5.87121 -2.5286 16.8638
RightToes  -1.33073e-015 0 -3.6325e-017
Spine  1.57518 0.20187 -2.90139
Spine1  14.3168 -2.25915 6.35717
HEad  10.831 -17.8061 3.97348
LeftShoulder1  6.94377 -14.9053 -31.6959
LeftArm  38.1894 -8.91594 -51.4439
LeftForeArm  -10.8149 -38.315 -9.47562
LeftHand  -0.246645 0.021 5.37786
RightShoulder  7.35705 15.1042 33.5713
RightArm  22.9008 14.9665 50.2828
RightForeArm  -9.38213 30.0382 7.04157
RightHand  -0.24729 -0.0210522 -5.37781
LeftUpLeg  -5.67799 8.00481 3.39861
LeftLeg  9.19021 3.43477 -3.46295
LeftFoot  -3.16304 0.131089 -1.56764
LeftToes  5.09284e-011 3.02203e-011 3.83118e-011
247
root  -4.63858 40.2202 10.9909 -177.753 -14.8333 179.428
RightUpLeg  -1.55701 -5.72791 -16.5472
RightLeg  12.8146 -3.11273 -1.58139
RightFoot  4.73225 -2.48019 17.6675
RightToes  -1.33073e-015 0 -3.6325e-017
Spine  1.20526 0.253639 -4.03365
Spine1  14.9098 -2.25538 6.55858
HEad  10.798 -17.2689 3.87682
LeftShoulder1  6.91018 -14.8097 -31.7103
LeftArm  36.0911 -8.63177 -49.9975
LeftForeArm  -4.517 -39.3388 -9.44935
LeftHand  -0.246645 0.021 5.37786
RightShoulder  7.29352 14.9775 33.5007
RightArm  21.1784 15.2486 49.6982
RightForeArm  -8.32873 31.0707 7.25442
RightHand  -0.24729 -0.0210522 -5.37781
LeftUpLeg  -5.78665 8.36362 3.92341
LeftLeg  9.08836 5.20363 -3.27105
LeftFoot  -3.13565 0.177203 -2.20789
LeftToes  5.09284e-011 3.02203e-011 3.83118e-011
248
root  -4.3002 40.2142 10.9362 -177.404 -12.7545 179.251
RightUpLeg  -0.657127 -8.75022 -16.0576
RightLeg  9.23391 -0.600114 -1.46746
RightFoot  3.80048 -2.33583 17.6391
RightToes  -1.33073e-015 0 -3.6325e-017
Spine  0.83941 0.278757 -5.08607
Spine1  15.4907 -2.24551 6.71732
HEad  10.7215 -16.6907 3.92194
LeftShoulder1  6.9162 -14.7702 -31.8257
LeftArm  34.4227 -8.1545 -48.4041
LeftForeArm  -1.27289 -39.9492 -9.45521
LeftHand  -0.246645 0.021 5.37786
RightShoulder  7.29801 14.9492 33.5855
RightArm  20.129 15.6699 49.013
RightForeArm  -8.054 31.7641 7.42299
RightHand  -0.24729 -0.0210522 -5.37781
LeftUpLeg  -5.727 8.66457 4.35561
LeftLeg  8.80913 6.78555 -3.1496
LeftFoot  -3.0053 0.225251 -2.84247
LeftToes  5.09284e-011 3.02203e-011 3.83118e-011
